<svg xmlns="http://www.w3.org/2000/svg" fill="none" viewBox="0 0 24 24" id="Import-Contacts--Streamline-Rounded-Material" height="24" width="24">
  <desc>
    Import Contacts Streamline Icon: https://streamlinehq.com
  </desc>
  <path fill="#000000" d="M6.2 16.5c0.89285 0 1.76185 0.10415 2.607 0.3125 0.84535 0.20835 1.67635 0.52085 2.493 0.9375V7.075c-0.75 -0.5 -1.5635 -0.8875 -2.4405 -1.1625 -0.877 -0.275 -1.7635 -0.4125 -2.6595 -0.4125 -0.63335 0 -1.254165 0.07915 -1.8625 0.2375 -0.608335 0.15835 -1.220835 0.35415 -1.8375 0.5875v10.85c0.516665 -0.23335 1.104165 -0.40415 1.7625 -0.5125C4.920835 16.55415 5.56665 16.5 6.2 16.5Zm6.6 1.25c0.83335 -0.41665 1.65 -0.72915 2.45 -0.9375 0.8 -0.20835 1.65 -0.3125 2.55 -0.3125 0.63335 0 1.2875 0.05 1.9625 0.15 0.675 0.1 1.25415 0.23335 1.7375 0.4V6.325c-0.56665 -0.28335 -1.16515 -0.49165 -1.7955 -0.625 -0.63035 -0.13335 -1.26515 -0.2 -1.9045 -0.2 -0.9 0 -1.77085 0.1375 -2.6125 0.4125 -0.84165 0.275 -1.6375 0.6625 -2.3875 1.1625V17.75Zm-0.75 1.975c-0.12565 0 -0.2446 -0.0125 -0.35675 -0.0375 -0.11215 -0.025 -0.2099 -0.07085 -0.29325 -0.1375 -0.78335 -0.48335 -1.6154 -0.85835 -2.49625 -1.125 -0.88065 -0.26665 -1.7819 -0.4 -2.70375 -0.4 -0.609 0 -1.207085 0.075 -1.79425 0.225 -0.587165 0.15 -1.172415 0.33335 -1.75575 0.55 -0.385 0.18335 -0.75625 0.15835 -1.11375 -0.075C1.17875 18.49165 1 18.15835 1 17.725V6.15c0 -0.25 0.058335 -0.47915 0.175 -0.6875 0.116665 -0.20835 0.291665 -0.37085 0.525 -0.4875 0.7 -0.333335 1.42825 -0.579165 2.18475 -0.7375C4.641415 4.079165 5.41315 4 6.2 4c1.05 0 2.07085 0.141665 3.0625 0.425 0.99165 0.283335 1.92085 0.71665 2.7875 1.3 0.85 -0.58335 1.7625 -1.016665 2.7375 -1.3C15.7625 4.141665 16.76665 4 17.8 4c0.78115 0 1.54725 0.079165 2.29825 0.2375 0.75115 0.158335 1.47675 0.404165 2.17675 0.7375 0.23335 0.11665 0.4125 0.27915 0.5375 0.4875 0.125 0.20835 0.1875 0.4375 0.1875 0.6875v11.575c0 0.46485 -0.1875 0.8186 -0.5625 1.06125 -0.375 0.2425 -0.74585 0.2471 -1.1125 0.01375 -0.56665 -0.23335 -1.1436 -0.42085 -1.73075 -0.5625 -0.58715 -0.14165 -1.18525 -0.2125 -1.79425 -0.2125 -0.9045 0 -1.789 0.13335 -2.6535 0.4 -0.86435 0.26665 -1.67985 0.64165 -2.4465 1.125 -0.08335 0.06665 -0.1811 0.1125 -0.29325 0.1375 -0.11215 0.025 -0.2311 0.0375 -0.35675 0.0375Z" stroke-width="0.5"></path>
</svg>