<svg version="1.1" id="Layer_1" xmlns="http://www.w3.org/2000/svg" xmlns:xlink="http://www.w3.org/1999/xlink" x="0px" y="0px"
	 width="100%" viewBox="0 0 3464 3464" enable-background="new 0 0 3464 3464" xml:space="preserve">
<path fill="#000000" opacity="1.000000" stroke="none" 
	d="
M3168.000000,3466.000000 
	C2112.000244,3466.000000 1057.000610,3466.000000 2.000708,3466.000000 
	C2.000472,2311.333984 2.000472,1156.667969 2.000236,2.001482 
	C1156.665649,2.000988 2311.331299,2.000988 3465.997803,2.000494 
	C3465.998535,1156.665283 3465.998535,2311.330566 3465.999268,3465.998047 
	C3367.000000,3466.000000 3268.000000,3466.000000 3168.000000,3466.000000 
M581.018677,1955.674072 
	C600.602539,1955.674072 620.186401,1955.674072 640.306885,1955.674072 
	C677.039307,1847.569458 713.583069,1740.020020 750.885803,1630.237061 
	C787.637939,1740.437378 823.547180,1848.110107 859.238037,1955.128052 
	C889.530273,1955.128052 918.409424,1955.128052 947.531921,1955.128052 
	C996.288940,1807.988525 1044.907837,1661.265869 1093.680298,1514.079834 
	C1066.553345,1514.079834 1040.630493,1514.079834 1014.342651,1514.079834 
	C977.223145,1624.914673 940.191345,1735.487793 903.159546,1846.060913 
	C902.458069,1846.019653 901.756592,1845.978394 901.055176,1845.937256 
	C864.451294,1735.391846 827.847473,1624.846558 791.158386,1514.043945 
	C765.627075,1514.043945 740.377380,1514.043945 714.412537,1514.043945 
	C676.780884,1624.491211 639.154480,1734.922852 600.808289,1847.467041 
	C564.009583,1734.901489 527.915100,1624.490112 491.803162,1514.025269 
	C463.048004,1514.025269 434.787018,1514.025269 405.555115,1514.025269 
	C454.489258,1661.690796 503.218933,1808.739258 551.910950,1955.674072 
	C561.711670,1955.674072 570.371033,1955.674072 581.018677,1955.674072 
M1649.747559,1624.801880 
	C1684.198853,1588.233521 1718.650269,1551.665161 1754.452515,1513.662842 
	C1723.031494,1513.662842 1694.051880,1513.572754 1665.075195,1513.817627 
	C1662.493408,1513.839355 1659.381714,1515.468506 1657.457275,1517.326172 
	C1650.760010,1523.791138 1644.494873,1530.702515 1638.033569,1537.413452 
	C1611.256104,1565.224609 1584.513794,1593.069702 1557.668091,1620.814819 
	C1533.821899,1645.460083 1509.848877,1669.982788 1485.945923,1694.573120 
	C1476.431519,1704.361206 1466.914795,1714.147705 1457.480103,1724.012451 
	C1453.456299,1728.219727 1449.640259,1732.625488 1445.729614,1736.941040 
	C1445.080811,1736.731689 1444.432007,1736.522339 1443.783203,1736.312988 
	C1443.783203,1662.304443 1443.783203,1588.295898 1443.783203,1514.241943 
	C1415.366577,1514.241943 1388.209961,1514.241943 1361.025879,1514.241943 
	C1361.025879,1661.584106 1361.025879,1808.343018 1361.025879,1954.963135 
	C1388.868774,1954.963135 1416.002930,1954.963135 1443.677490,1954.963135 
	C1443.677490,1950.955444 1443.677368,1947.659424 1443.677368,1944.363525 
	C1443.677368,1913.033325 1443.598267,1881.702759 1443.791626,1850.373779 
	C1443.812500,1846.987549 1444.560669,1842.996460 1446.461792,1840.361328 
	C1450.127075,1835.281006 1454.781738,1830.895996 1459.161865,1826.353638 
	C1470.024780,1815.088013 1480.928101,1803.860962 1491.886108,1792.687866 
	C1498.791870,1785.646484 1505.825195,1778.730103 1513.039307,1771.519775 
	C1521.784302,1781.935547 1529.878784,1791.601929 1538.000488,1801.245483 
	C1579.505737,1850.528320 1621.067993,1899.763550 1662.447266,1949.151855 
	C1666.386475,1953.853638 1670.336548,1955.975952 1676.728516,1955.859741 
	C1701.384521,1955.410400 1726.053589,1955.677368 1750.717773,1955.677368 
	C1754.911011,1955.677368 1759.104248,1955.677490 1765.499878,1955.677490 
	C1699.109497,1873.214355 1634.028931,1792.378052 1568.735474,1711.277344 
	C1581.778931,1697.377319 1594.504517,1683.844727 1607.197632,1670.281860 
	C1621.059814,1655.469849 1634.891846,1640.629639 1649.747559,1624.801880 
M2599.674561,1725.309326 
	C2599.231689,1720.035156 2598.630615,1714.768677 2598.371094,1709.485474 
	C2596.488281,1671.167358 2587.602051,1634.738403 2569.663086,1600.631470 
	C2556.924805,1576.412476 2540.090576,1555.632446 2517.953125,1539.547852 
	C2474.615723,1508.059814 2425.769043,1501.108032 2374.590332,1511.285034 
	C2327.132568,1520.722046 2291.447754,1548.416016 2266.048096,1589.395752 
	C2242.899170,1626.744629 2232.959717,1668.135620 2230.578369,1711.397095 
	C2229.523926,1730.552368 2230.485596,1749.908325 2231.803467,1769.085815 
	C2234.480713,1808.055176 2245.013672,1844.792114 2265.464600,1878.395752 
	C2286.585205,1913.098999 2315.524170,1938.437622 2354.075928,1952.077759 
	C2380.171875,1961.310791 2406.995117,1963.070801 2434.531250,1960.582275 
	C2459.555908,1958.320435 2482.632812,1950.958252 2504.095703,1938.380615 
	C2542.552246,1915.844360 2566.729004,1881.613159 2582.159668,1840.699585 
	C2595.937256,1804.168823 2599.913086,1765.994873 2599.674561,1725.309326 
M2981.599854,1888.557251 
	C3010.941895,1846.097046 3021.666016,1798.028442 3023.531738,1747.467651 
	C3024.032471,1733.902100 3022.901611,1720.267578 3022.325195,1706.672974 
	C3020.931885,1673.813721 3013.595947,1642.256836 2999.840576,1612.431519 
	C2978.262695,1565.642700 2944.508789,1531.771118 2894.649170,1515.391235 
	C2873.476318,1508.435547 2851.744385,1507.212891 2829.721191,1507.630371 
	C2791.789062,1508.349365 2758.109619,1520.832153 2728.885010,1544.734741 
	C2696.924072,1570.875488 2677.623779,1605.392456 2666.084717,1644.427979 
	C2654.568604,1683.385986 2652.506348,1723.227417 2655.437256,1763.645752 
	C2657.398193,1790.686035 2662.433105,1816.873047 2671.993408,1842.150269 
	C2683.328857,1872.121338 2699.760498,1899.043091 2724.010010,1920.229248 
	C2766.424805,1957.285767 2816.626709,1967.801758 2871.022461,1959.219238 
	C2917.216553,1951.930908 2953.643066,1927.848633 2981.599854,1888.557251 
M2001.001953,1582.341309 
	C2020.553223,1582.341309 2040.104492,1582.341309 2060.527588,1582.341309 
	C2060.527588,1707.231323 2060.527588,1831.014893 2060.527588,1955.128296 
	C2088.547852,1955.128296 2115.672852,1955.128296 2143.126465,1955.128296 
	C2143.126465,1807.837280 2143.126465,1661.097168 2143.126465,1514.223389 
	C2084.453857,1514.223389 2026.335205,1514.223389 1968.361206,1514.223389 
	C1968.361206,1537.223389 1968.361206,1559.651855 1968.361206,1582.341309 
	C1979.047729,1582.341309 1989.025757,1582.341309 2001.001953,1582.341309 
M1820.317627,1890.999878 
	C1820.317627,1912.229614 1820.317627,1933.459229 1820.317627,1955.178223 
	C1848.417236,1955.178223 1875.539551,1955.178223 1903.172363,1955.178223 
	C1903.172363,1807.998779 1903.172363,1661.281128 1903.172363,1514.109253 
	C1875.593628,1514.109253 1848.445312,1514.109253 1820.317627,1514.109253 
	C1820.317627,1639.341797 1820.317627,1764.170776 1820.317627,1890.999878 
M1159.663940,1836.999878 
	C1159.663940,1876.234619 1159.663940,1915.469482 1159.663940,1955.046265 
	C1187.629761,1955.046265 1214.724365,1955.046265 1241.729492,1955.046265 
	C1241.729492,1807.666870 1241.729492,1660.908447 1241.729492,1514.066650 
	C1214.268433,1514.066650 1187.415771,1514.066650 1159.663940,1514.066650 
	C1159.663940,1621.306519 1159.663940,1728.153198 1159.663940,1836.999878 
z"/>
<path fill="#FDFDFD" opacity="1.000000" stroke="none" 
	d="
M580.024536,1955.674072 
	C570.371033,1955.674072 561.711670,1955.674072 551.910950,1955.674072 
	C503.218933,1808.739258 454.489258,1661.690796 405.555115,1514.025269 
	C434.787018,1514.025269 463.048004,1514.025269 491.803162,1514.025269 
	C527.915100,1624.490112 564.009583,1734.901489 600.808289,1847.467041 
	C639.154480,1734.922852 676.780884,1624.491211 714.412537,1514.043945 
	C740.377380,1514.043945 765.627075,1514.043945 791.158386,1514.043945 
	C827.847473,1624.846558 864.451294,1735.391846 901.055176,1845.937256 
	C901.756592,1845.978394 902.458069,1846.019653 903.159546,1846.060913 
	C940.191345,1735.487793 977.223145,1624.914673 1014.342651,1514.079834 
	C1040.630493,1514.079834 1066.553345,1514.079834 1093.680298,1514.079834 
	C1044.907837,1661.265869 996.288940,1807.988525 947.531921,1955.128052 
	C918.409424,1955.128052 889.530273,1955.128052 859.238037,1955.128052 
	C823.547180,1848.110107 787.637939,1740.437378 750.885803,1630.237061 
	C713.583069,1740.020020 677.039307,1847.569458 640.306885,1955.674072 
	C620.186401,1955.674072 600.602539,1955.674072 580.024536,1955.674072 
z"/>
<path fill="#FDFDFD" opacity="1.000000" stroke="none" 
	d="
M1649.242310,1625.301758 
	C1634.891846,1640.629639 1621.059814,1655.469849 1607.197632,1670.281860 
	C1594.504517,1683.844727 1581.778931,1697.377319 1568.735474,1711.277344 
	C1634.028931,1792.378052 1699.109497,1873.214355 1765.499878,1955.677490 
	C1759.104248,1955.677490 1754.911011,1955.677368 1750.717773,1955.677368 
	C1726.053589,1955.677368 1701.384521,1955.410400 1676.728516,1955.859741 
	C1670.336548,1955.975952 1666.386475,1953.853638 1662.447266,1949.151855 
	C1621.067993,1899.763550 1579.505737,1850.528320 1538.000488,1801.245483 
	C1529.878784,1791.601929 1521.784302,1781.935547 1513.039307,1771.519775 
	C1505.825195,1778.730103 1498.791870,1785.646484 1491.886108,1792.687866 
	C1480.928101,1803.860962 1470.024780,1815.088013 1459.161865,1826.353638 
	C1454.781738,1830.895996 1450.127075,1835.281006 1446.461792,1840.361328 
	C1444.560669,1842.996460 1443.812500,1846.987549 1443.791626,1850.373779 
	C1443.598267,1881.702759 1443.677368,1913.033325 1443.677368,1944.363525 
	C1443.677368,1947.659424 1443.677490,1950.955444 1443.677490,1954.963135 
	C1416.002930,1954.963135 1388.868774,1954.963135 1361.025879,1954.963135 
	C1361.025879,1808.343018 1361.025879,1661.584106 1361.025879,1514.241943 
	C1388.209961,1514.241943 1415.366577,1514.241943 1443.783203,1514.241943 
	C1443.783203,1588.295898 1443.783203,1662.304443 1443.783203,1736.312988 
	C1444.432007,1736.522339 1445.080811,1736.731689 1445.729614,1736.941040 
	C1449.640259,1732.625488 1453.456299,1728.219727 1457.480103,1724.012451 
	C1466.914795,1714.147705 1476.431519,1704.361206 1485.945923,1694.573120 
	C1509.848877,1669.982788 1533.821899,1645.460083 1557.668091,1620.814819 
	C1584.513794,1593.069702 1611.256104,1565.224609 1638.033569,1537.413452 
	C1644.494873,1530.702515 1650.760010,1523.791138 1657.457275,1517.326172 
	C1659.381714,1515.468506 1662.493408,1513.839355 1665.075195,1513.817627 
	C1694.051880,1513.572754 1723.031494,1513.662842 1754.452515,1513.662842 
	C1718.650269,1551.665161 1684.198853,1588.233521 1649.242310,1625.301758 
z"/>
<path fill="#FDFDFD" opacity="1.000000" stroke="none" 
	d="
M2599.674316,1726.271484 
	C2599.913086,1765.994873 2595.937256,1804.168823 2582.159668,1840.699585 
	C2566.729004,1881.613159 2542.552246,1915.844360 2504.095703,1938.380615 
	C2482.632812,1950.958252 2459.555908,1958.320435 2434.531250,1960.582275 
	C2406.995117,1963.070801 2380.171875,1961.310791 2354.075928,1952.077759 
	C2315.524170,1938.437622 2286.585205,1913.098999 2265.464600,1878.395752 
	C2245.013672,1844.792114 2234.480713,1808.055176 2231.803467,1769.085815 
	C2230.485596,1749.908325 2229.523926,1730.552368 2230.578369,1711.397095 
	C2232.959717,1668.135620 2242.899170,1626.744629 2266.048096,1589.395752 
	C2291.447754,1548.416016 2327.132568,1520.722046 2374.590332,1511.285034 
	C2425.769043,1501.108032 2474.615723,1508.059814 2517.953125,1539.547852 
	C2540.090576,1555.632446 2556.924805,1576.412476 2569.663086,1600.631470 
	C2587.602051,1634.738403 2596.488281,1671.167358 2598.371094,1709.485474 
	C2598.630615,1714.768677 2599.231689,1720.035156 2599.674316,1726.271484 
M2356.799316,1868.263184 
	C2380.213135,1888.520142 2407.179443,1893.810669 2436.821045,1886.783325 
	C2468.304688,1879.319092 2487.603271,1857.923706 2500.120117,1829.540283 
	C2510.705322,1805.536743 2514.470459,1779.876343 2515.454590,1753.950439 
	C2516.106934,1736.760742 2515.098877,1719.479980 2514.254639,1702.268433 
	C2513.089844,1678.519531 2507.958252,1655.519287 2497.639160,1634.071411 
	C2489.017822,1616.151978 2476.901611,1600.900879 2459.193359,1590.752441 
	C2443.698242,1581.872192 2427.014160,1578.915405 2409.377441,1579.630615 
	C2384.822754,1580.626465 2364.524414,1590.362427 2348.346436,1608.751221 
	C2335.119629,1623.785645 2326.811035,1641.445190 2322.021973,1660.680664 
	C2310.860107,1705.510620 2310.714844,1750.690186 2319.196045,1795.928833 
	C2324.315430,1823.235596 2334.443115,1848.180786 2356.799316,1868.263184 
z"/>
<path fill="#FDFDFD" opacity="1.000000" stroke="none" 
	d="
M2981.163818,1889.132324 
	C2953.643066,1927.848633 2917.216553,1951.930908 2871.022461,1959.219238 
	C2816.626709,1967.801758 2766.424805,1957.285767 2724.010010,1920.229248 
	C2699.760498,1899.043091 2683.328857,1872.121338 2671.993408,1842.150269 
	C2662.433105,1816.873047 2657.398193,1790.686035 2655.437256,1763.645752 
	C2652.506348,1723.227417 2654.568604,1683.385986 2666.084717,1644.427979 
	C2677.623779,1605.392456 2696.924072,1570.875488 2728.885010,1544.734741 
	C2758.109619,1520.832153 2791.789062,1508.349365 2829.721191,1507.630371 
	C2851.744385,1507.212891 2873.476318,1508.435547 2894.649170,1515.391235 
	C2944.508789,1531.771118 2978.262695,1565.642700 2999.840576,1612.431519 
	C3013.595947,1642.256836 3020.931885,1673.813721 3022.325195,1706.672974 
	C3022.901611,1720.267578 3024.032471,1733.902100 3023.531738,1747.467651 
	C3021.666016,1798.028442 3010.941895,1846.097046 2981.163818,1889.132324 
M2866.223633,1885.561035 
	C2876.095215,1882.365723 2885.182373,1877.750244 2893.341064,1871.243774 
	C2911.983398,1856.376831 2923.009033,1836.611084 2929.951904,1814.308838 
	C2936.595947,1792.965576 2939.033447,1770.976807 2939.863037,1748.680786 
	C2941.041748,1716.995972 2939.133301,1685.678833 2930.085693,1655.146606 
	C2924.449707,1636.125977 2915.361572,1618.929321 2901.212158,1604.645996 
	C2878.634033,1581.853760 2850.978027,1576.108032 2820.505615,1581.066650 
	C2803.359619,1583.856689 2788.878662,1592.212524 2776.582764,1604.738770 
	C2760.960205,1620.654175 2751.620850,1639.850952 2746.198486,1661.039429 
	C2735.170654,1704.132202 2735.275391,1747.701050 2742.383789,1791.322266 
	C2745.824219,1812.435059 2752.715576,1832.410034 2764.972412,1850.317871 
	C2788.059570,1884.049072 2826.616943,1896.761841 2866.223633,1885.561035 
z"/>
<path fill="#FCFCFC" opacity="1.000000" stroke="none" 
	d="
M2000.002930,1582.341309 
	C1989.025757,1582.341309 1979.047729,1582.341309 1968.361206,1582.341309 
	C1968.361206,1559.651855 1968.361206,1537.223389 1968.361206,1514.223389 
	C2026.335205,1514.223389 2084.453857,1514.223389 2143.126465,1514.223389 
	C2143.126465,1661.097168 2143.126465,1807.837280 2143.126465,1955.128296 
	C2115.672852,1955.128296 2088.547852,1955.128296 2060.527588,1955.128296 
	C2060.527588,1831.014893 2060.527588,1707.231323 2060.527588,1582.341309 
	C2040.104492,1582.341309 2020.553223,1582.341309 2000.002930,1582.341309 
z"/>
<path fill="#FCFCFC" opacity="1.000000" stroke="none" 
	d="
M1820.317627,1889.999756 
	C1820.317627,1764.170776 1820.317627,1639.341797 1820.317627,1514.109253 
	C1848.445312,1514.109253 1875.593628,1514.109253 1903.172363,1514.109253 
	C1903.172363,1661.281128 1903.172363,1807.998779 1903.172363,1955.178223 
	C1875.539551,1955.178223 1848.417236,1955.178223 1820.317627,1955.178223 
	C1820.317627,1933.459229 1820.317627,1912.229614 1820.317627,1889.999756 
z"/>
<path fill="#FFFFFF" opacity="1.000000" stroke="none" 
	d="
M1159.663940,1835.999756 
	C1159.663940,1728.153198 1159.663940,1621.306519 1159.663940,1514.066650 
	C1187.415771,1514.066650 1214.268433,1514.066650 1241.729492,1514.066650 
	C1241.729492,1660.908447 1241.729492,1807.666870 1241.729492,1955.046265 
	C1214.724365,1955.046265 1187.629761,1955.046265 1159.663940,1955.046265 
	C1159.663940,1915.469482 1159.663940,1876.234619 1159.663940,1835.999756 
z"/>
<path fill="#010101" opacity="1.000000" stroke="none" 
	d="
M2356.294189,1867.763794 
	C2334.443115,1848.180786 2324.315430,1823.235596 2319.196045,1795.928833 
	C2310.714844,1750.690186 2310.860107,1705.510620 2322.021973,1660.680664 
	C2326.811035,1641.445190 2335.119629,1623.785645 2348.346436,1608.751221 
	C2364.524414,1590.362427 2384.822754,1580.626465 2409.377441,1579.630615 
	C2427.014160,1578.915405 2443.698242,1581.872192 2459.193359,1590.752441 
	C2476.901611,1600.900879 2489.017822,1616.151978 2497.639160,1634.071411 
	C2507.958252,1655.519287 2513.089844,1678.519531 2514.254639,1702.268433 
	C2515.098877,1719.479980 2516.106934,1736.760742 2515.454590,1753.950439 
	C2514.470459,1779.876343 2510.705322,1805.536743 2500.120117,1829.540283 
	C2487.603271,1857.923706 2468.304688,1879.319092 2436.821045,1886.783325 
	C2407.179443,1893.810669 2380.213135,1888.520142 2356.294189,1867.763794 
z"/>
<path fill="#010101" opacity="1.000000" stroke="none" 
	d="
M2865.431641,1885.745605 
	C2826.616943,1896.761841 2788.059570,1884.049072 2764.972412,1850.317871 
	C2752.715576,1832.410034 2745.824219,1812.435059 2742.383789,1791.322266 
	C2735.275391,1747.701050 2735.170654,1704.132202 2746.198486,1661.039429 
	C2751.620850,1639.850952 2760.960205,1620.654175 2776.582764,1604.738770 
	C2788.878662,1592.212524 2803.359619,1583.856689 2820.505615,1581.066650 
	C2850.978027,1576.108032 2878.634033,1581.853760 2901.212158,1604.645996 
	C2915.361572,1618.929321 2924.449707,1636.125977 2930.085693,1655.146606 
	C2939.133301,1685.678833 2941.041748,1716.995972 2939.863037,1748.680786 
	C2939.033447,1770.976807 2936.595947,1792.965576 2929.951904,1814.308838 
	C2923.009033,1836.611084 2911.983398,1856.376831 2893.341064,1871.243774 
	C2885.182373,1877.750244 2876.095215,1882.365723 2865.431641,1885.745605 
z"/>
</svg>